<svg id="Layer_1" enable-background="new 0 0 512 512" height="512" viewBox="0 0 512 512" width="512" xmlns="http://www.w3.org/2000/svg"><g id="_x33_8_search_result"><g><path d="m464.959 92.708v-58.562c0-15.912-12.899-28.813-28.813-28.813h-360.293c-15.912 0-28.813 12.899-28.813 28.813v58.562" fill="#fbdb74"/><path d="m105.173 506.667h-29.333c-15.893 0-28.8-12.907-28.8-28.8v-385.173h29.333v385.174c0 15.893 12.907 28.799 28.8 28.799z" fill="#d3eaf8"/><path d="m360.694 128.801v72.054h-260.321c-8.801 0-16-7.2-16-16v-40.053c0-8.853 7.2-16 16-16z" fill="#fbdb74"/><path d="m427.627 144.8v40.053c0 8.801-7.2 16-16 16h-50.933v-72.053h50.933c8.799.001 16 7.147 16 16z" fill="#ef9070"/><path d="m405.217 170.386c-4.602 4.602-12.005 4.562-16.607-.04-4.562-4.562-4.602-11.965 0-16.567s12.046-4.602 16.608-.04c4.603 4.602 4.601 12.045-.001 16.647z" fill="#d3eaf8"/><g fill="#ef9070"><circle cx="102.84" cy="259.994" r="18.455"/><circle cx="102.84" cy="324.031" r="18.455"/><circle cx="102.84" cy="388.067" r="18.455"/><circle cx="102.84" cy="452.103" r="18.455"/></g><g fill="#4b688c"><path d="m470.292 34.145c0-18.828-15.318-34.145-34.146-34.145h-360.292c-18.828 0-34.146 15.317-34.146 34.145.001 40.942.013 440.579.013 443.709 0 18.828 15.318 34.146 34.144 34.146h360.271c18.828 0 34.146-15.318 34.146-34.146 0-32.4.009-388.809.01-443.709zm-10.677 443.71c0 12.946-10.532 23.48-23.48 23.48h-360.27c-12.946 0-23.476-10.534-23.476-23.48 0-5.094-.012-397.122-.013-443.709 0-12.946 10.534-23.48 23.48-23.48h360.292c12.948 0 23.48 10.534 23.48 23.48-.004 54.759-.012 411.323-.013 443.709z"/><path d="m442.667 87.359h-373.334c-2.945 0-5.333 2.388-5.333 5.333s2.388 5.333 5.333 5.333h373.334c2.948 0 5.333-2.388 5.333-5.333s-2.385-5.333-5.333-5.333z"/><path d="m92.878 61.557c2.945 0 5.333-2.388 5.333-5.333v-5.201c0-2.945-2.388-5.333-5.333-5.333s-5.333 2.388-5.333 5.333v5.201c-.001 2.945 2.387 5.333 5.333 5.333z"/><path d="m130.172 61.557c2.945 0 5.333-2.388 5.333-5.333v-5.201c0-2.945-2.388-5.333-5.333-5.333s-5.333 2.388-5.333 5.333v5.201c0 2.945 2.388 5.333 5.333 5.333z"/><path d="m167.469 61.557c2.945 0 5.333-2.388 5.333-5.333v-5.201c0-2.945-2.388-5.333-5.333-5.333s-5.333 2.388-5.333 5.333v5.201c0 2.945 2.388 5.333 5.333 5.333z"/><path d="m302.333 58.956h116.787c2.948 0 5.333-2.388 5.333-5.333s-2.386-5.333-5.333-5.333h-116.787c-2.948 0-5.333 2.388-5.333 5.333s2.385 5.333 5.333 5.333z"/><path d="m411.615 123.469c-111.218 0-194.888 0-311.227 0-11.763 0-21.333 9.571-21.333 21.333v40.028c0 11.763 9.571 21.333 21.333 21.333h311.227c11.766 0 21.333-9.571 21.333-21.333v-40.028c0-11.763-9.568-21.333-21.333-21.333zm-321.894 61.361v-40.028c0-5.883 4.784-10.666 10.666-10.666h254.972v61.362h-254.97c-5.884 0-10.668-4.784-10.668-10.668zm332.56 0c0 5.882-4.787 10.666-10.666 10.666h-45.588v-61.362h45.588c5.88 0 10.666 4.784 10.666 10.666z"/><path d="m384.839 150.011c-5.32 5.322-6.306 13.288-3.107 19.674l-6.273 6.274c-2.084 2.084-2.084 5.461 0 7.542 2.084 2.084 5.458 2.084 7.542 0l6.271-6.272c7.106 3.578 14.823 1.82 19.719-3.07 0-.002 0-.002 0-.002 6.666-6.67 6.666-17.518 0-24.187-6.657-6.655-17.486-6.629-24.152.041zm16.609 16.603c-2.536 2.529-6.521 2.511-9.067-.039-2.485-2.487-2.485-6.536 0-9.023 2.502-2.497 6.56-2.544 9.067-.042 2.505 2.511 2.505 6.594 0 9.104z"/><path d="m102.841 236.205c-13.118 0-23.789 10.672-23.789 23.789 0 13.118 10.672 23.789 23.789 23.789s23.786-10.672 23.786-23.789-10.669-23.789-23.786-23.789zm0 36.912c-7.237 0-13.122-5.886-13.122-13.122 0-7.237 5.886-13.122 13.122-13.122 7.234 0 13.12 5.886 13.12 13.122 0 7.237-5.885 13.122-13.12 13.122z"/><path d="m427.614 254.661h-274.385c-2.945 0-5.333 2.388-5.333 5.333s2.388 5.333 5.333 5.333h274.386c2.948 0 5.333-2.388 5.333-5.333s-2.385-5.333-5.334-5.333z"/><path d="m102.841 300.242c-13.118 0-23.789 10.672-23.789 23.789 0 13.118 10.672 23.786 23.789 23.786s23.786-10.669 23.786-23.786-10.669-23.789-23.786-23.789zm0 36.909c-7.237 0-13.122-5.886-13.122-13.12 0-7.237 5.886-13.122 13.122-13.122 7.234 0 13.12 5.886 13.12 13.122 0 7.234-5.885 13.12-13.12 13.12z"/><path d="m427.614 318.698h-274.385c-2.945 0-5.333 2.388-5.333 5.333s2.388 5.333 5.333 5.333h274.386c2.948 0 5.333-2.388 5.333-5.333s-2.385-5.333-5.334-5.333z"/><path d="m102.841 364.279c-13.118 0-23.789 10.672-23.789 23.789 0 13.118 10.672 23.786 23.789 23.786s23.786-10.669 23.786-23.786-10.669-23.789-23.786-23.789zm0 36.909c-7.237 0-13.122-5.886-13.122-13.12 0-7.237 5.886-13.122 13.122-13.122 7.234 0 13.12 5.886 13.12 13.122 0 7.234-5.885 13.12-13.12 13.12z"/><path d="m427.614 382.735h-274.385c-2.945 0-5.333 2.388-5.333 5.333s2.388 5.333 5.333 5.333h274.386c2.948 0 5.333-2.388 5.333-5.333-.001-2.945-2.385-5.333-5.334-5.333z"/><path d="m102.841 428.315c-13.118 0-23.789 10.672-23.789 23.789 0 13.118 10.672 23.786 23.789 23.786s23.786-10.669 23.786-23.786-10.669-23.789-23.786-23.789zm0 36.909c-7.237 0-13.122-5.886-13.122-13.12 0-7.237 5.886-13.122 13.122-13.122 7.234 0 13.12 5.886 13.12 13.122 0 7.235-5.885 13.12-13.12 13.12z"/><path d="m427.614 446.771h-274.385c-2.945 0-5.333 2.388-5.333 5.333s2.388 5.333 5.333 5.333h274.386c2.948 0 5.333-2.388 5.333-5.333s-2.385-5.333-5.334-5.333z"/></g></g></g></svg>